<svg height="464pt" viewBox="0 -16 464.00201 464" width="464pt" xmlns="http://www.w3.org/2000/svg"><path d="m376 432h48c4.417969 0 8-3.582031 8-8v-24h-64v24c0 4.417969 3.582031 8 8 8zm0 0" fill="#787680"/><path d="m368 400h64v16h-64zm0 0" fill="#57565c"/><path d="m448 144h-432c-8.835938 0-16 7.164062-16 16v80c0 8.835938 7.164062 16 16 16h432c8.835938 0 16-7.164062 16-16v-80c0-8.835938-7.164062-16-16-16zm-376 80c-13.253906 0-24-10.746094-24-24s10.746094-24 24-24 24 10.746094 24 24-10.746094 24-24 24zm104-8c0 4.417969-3.582031 8-8 8h-16c-4.417969 0-8-3.582031-8-8v-32c0-4.417969 3.582031-8 8-8h16c4.417969 0 8 3.582031 8 8zm64 0c0 4.417969-3.582031 8-8 8h-16c-4.417969 0-8-3.582031-8-8v-32c0-4.417969 3.582031-8 8-8h16c4.417969 0 8 3.582031 8 8zm0 0" fill="#acabb1"/><path d="m448 288h-432c-8.835938 0-16 7.164062-16 16v80c0 8.835938 7.164062 16 16 16h432c8.835938 0 16-7.164062 16-16v-80c0-8.835938-7.164062-16-16-16zm-376 80c-13.253906 0-24-10.746094-24-24s10.746094-24 24-24 24 10.746094 24 24-10.746094 24-24 24zm104-8c0 4.417969-3.582031 8-8 8h-16c-4.417969 0-8-3.582031-8-8v-32c0-4.417969 3.582031-8 8-8h16c4.417969 0 8 3.582031 8 8zm0 0" fill="#acabb1"/><path d="m464 312v-8c.023438-1.398438-.183594-2.789062-.617188-4.117188.410157 4.023438.613282 8.070313.617188 12.117188zm0 0" fill="#78b9eb"/><path d="m448 0h-432c-8.824219.0273438-15.9726562 7.175781-16 16v80c.0273438 8.828125 7.175781 15.976562 16 16h432c8.824219-.023438 15.972656-7.171875 16-16v-80c-.027344-8.824219-7.175781-15.9726562-16-16zm-400 56c0-13.253906 10.746094-24 24-24s24 10.746094 24 24-10.746094 24-24 24-24-10.746094-24-24zm104 24c-4.417969 0-8-3.582031-8-8v-32c0-4.417969 3.582031-8 8-8h16c4.417969 0 8 3.582031 8 8v32c0 4.417969-3.582031 8-8 8zm64 0c-4.417969 0-8-3.582031-8-8v-32c0-4.417969 3.582031-8 8-8h16c4.417969 0 8 3.582031 8 8v32c0 4.417969-3.582031 8-8 8zm64 0c-4.417969 0-8-3.582031-8-8v-32c0-4.417969 3.582031-8 8-8h16c4.417969 0 8 3.582031 8 8v32c0 4.417969-3.582031 8-8 8zm0 0" fill="#acabb1"/><g fill="#787680"><path d="m40 432h48c4.417969 0 8-3.582031 8-8v-24h-64v24c0 4.417969 3.582031 8 8 8zm0 0"/><path d="m32 256h64v32h-64zm0 0"/><path d="m32 112h64v32h-64zm0 0"/><path d="m368 112h64v32h-64zm0 0"/></g><path d="m96 56c0 13.253906-10.746094 24-24 24s-24-10.746094-24-24 10.746094-24 24-24 24 10.746094 24 24zm0 0" fill="#ff9478"/><path d="m152 32h16c4.417969 0 8 3.582031 8 8v32c0 4.417969-3.582031 8-8 8h-16c-4.417969 0-8-3.582031-8-8v-32c0-4.417969 3.582031-8 8-8zm0 0" fill="#ffe477"/><path d="m216 32h16c4.417969 0 8 3.582031 8 8v32c0 4.417969-3.582031 8-8 8h-16c-4.417969 0-8-3.582031-8-8v-32c0-4.417969 3.582031-8 8-8zm0 0" fill="#ffe477"/><path d="m280 32h16c4.417969 0 8 3.582031 8 8v32c0 4.417969-3.582031 8-8 8h-16c-4.417969 0-8-3.582031-8-8v-32c0-4.417969 3.582031-8 8-8zm0 0" fill="#ffe477"/><path d="m96 200c0 13.253906-10.746094 24-24 24s-24-10.746094-24-24 10.746094-24 24-24 24 10.746094 24 24zm0 0" fill="#ff9478"/><path d="m152 176h16c4.417969 0 8 3.582031 8 8v32c0 4.417969-3.582031 8-8 8h-16c-4.417969 0-8-3.582031-8-8v-32c0-4.417969 3.582031-8 8-8zm0 0" fill="#ffe477"/><path d="m216 176h16c4.417969 0 8 3.582031 8 8v32c0 4.417969-3.582031 8-8 8h-16c-4.417969 0-8-3.582031-8-8v-32c0-4.417969 3.582031-8 8-8zm0 0" fill="#ffe477"/><path d="m96 344c0 13.253906-10.746094 24-24 24s-24-10.746094-24-24 10.746094-24 24-24 24 10.746094 24 24zm0 0" fill="#ff9478"/><path d="m152 320h16c4.417969 0 8 3.582031 8 8v32c0 4.417969-3.582031 8-8 8h-16c-4.417969 0-8-3.582031-8-8v-32c0-4.417969 3.582031-8 8-8zm0 0" fill="#ffe477"/><path d="m344 32h80v16h-80zm0 0" fill="#ffb655"/><path d="m344 64h80v16h-80zm0 0" fill="#ffb655"/><path d="m464 232v8c-.027344 8.828125-7.175781 15.976562-16 16h-432c-8.824219-.023438-15.9726562-7.171875-16-16v-8zm0 0" fill="#898890"/><path d="m464 376v8c-.027344 8.828125-7.175781 15.976562-16 16h-432c-8.824219-.023438-15.9726562-7.171875-16-16v-8zm0 0" fill="#898890"/><path d="m32 112h64v16h-64zm0 0" fill="#57565c"/><path d="m368 112h64v16h-64zm0 0" fill="#57565c"/><path d="m32 256h64v16h-64zm0 0" fill="#57565c"/><path d="m32 400h64v16h-64zm0 0" fill="#57565c"/><path d="m464 88v8c-.027344 8.828125-7.175781 15.976562-16 16h-432c-8.824219-.023438-15.9726562-7.171875-16-16v-8zm0 0" fill="#898890"/><path d="m463.359375 299.761719c.011719-.164063-.015625-.328125-.078125-.480469.0625.152344.089844.316406.078125.480469v.121093c-6.714844-64.746093-63.820313-112.332031-128.714844-107.257812-64.894531 5.078125-113.910156 60.960938-110.476562 125.964844 3.433593 65 58.058593 115.414062 123.128906 113.625 65.066406-1.785156 116.84375-55.121094 116.703125-120.214844-.003906-4.046875-.207031-8.09375-.617188-12.117188zm-119.359375 108.238281c-53.019531 0-96-42.980469-96-96s42.980469-96 96-96 96 42.980469 96 96-42.980469 96-96 96zm0 0" fill="#ffb655"/><path d="m440 312c0 53.019531-42.980469 96-96 96s-96-42.980469-96-96 42.980469-96 96-96 96 42.980469 96 96zm0 0" fill="#ffb655"/><path d="m344 416c-57.4375 0-104-46.5625-104-104s46.5625-104 104-104 104 46.5625 104 104c-.066406 57.410156-46.589844 103.933594-104 104zm0-192c-48.601562 0-88 39.398438-88 88s39.398438 88 88 88 88-39.398438 88-88c-.058594-48.578125-39.421875-87.941406-88-88zm0 0" fill="#ff6243"/><path d="m360 273.472656v-9.472656h-16v8h-8v-8h-16v8c-4.417969 0-8 3.582031-8 8v64c0 4.417969 3.582031 8 8 8v8h16v-8h8v8h16v-9.472656c7.566406-2.617188 13.308594-8.867188 15.273438-16.628906 1.96875-7.761719-.105469-15.992188-5.511719-21.898438 5.40625-5.902344 7.480469-14.132812 5.511719-21.894531-1.964844-7.761719-7.707032-14.015625-15.273438-16.632813zm-32 14.527344h24c4.417969 0 8 3.582031 8 8s-3.582031 8-8 8h-24zm24 48h-24v-16h24c4.417969 0 8 3.582031 8 8s-3.582031 8-8 8zm0 0" fill="#ff6243"/><path d="m392 304h16v16h-16zm0 0" fill="#ff6243"/><path d="m280 304h16v16h-16zm0 0" fill="#ff6243"/></svg>