<?xml version="1.0" encoding="utf-8"?>
<!-- Generator: Adobe Illustrator 16.0.0, SVG Export Plug-In . SVG Version: 6.00 Build 0)  -->
<!DOCTYPE svg PUBLIC "-//W3C//DTD SVG 1.1 Tiny//EN" "http://www.w3.org/Graphics/SVG/1.1/DTD/svg11-tiny.dtd">
<svg version="1.1" baseProfile="tiny" xmlns="http://www.w3.org/2000/svg" xmlns:xlink="http://www.w3.org/1999/xlink" x="0px"
	 y="0px" width="800px" height="800px" viewBox="0 0 800 800" xml:space="preserve">
<g id="Objects">
	<g>
		<g>
			<path class="rotate" d="M410.793,359.068c0-0.638-0.029-1.267-0.048-1.902l11.986-2.112l-3.194-18.091l-11.964,2.108
				c-0.4-1.21-0.834-2.401-1.306-3.579l10.525-6.075l-9.186-15.909l-10.534,6.083c-0.787-0.995-1.598-1.972-2.442-2.919l7.816-9.313
				l-14.076-11.811l-7.81,9.31c-1.081-0.669-2.175-1.313-3.294-1.916l4.152-11.408l-17.265-6.282l-4.15,11.405
				c-1.239-0.254-2.491-0.465-3.754-0.65v-12.15h-18.372v12.15c-1.265,0.185-2.518,0.396-3.756,0.65l-4.154-11.408l-17.262,6.285
				l4.153,11.408c-1.121,0.603-2.218,1.246-3.296,1.916l-7.812-9.31l-14.072,11.808l7.817,9.316
				c-0.846,0.945-1.654,1.924-2.442,2.919l-10.538-6.083l-9.183,15.909l10.523,6.075c-0.471,1.178-0.905,2.369-1.306,3.579
				l-11.964-2.108l-3.191,18.091l11.983,2.113c-0.02,0.634-0.046,1.263-0.046,1.901c0,0.639,0.026,1.268,0.046,1.901l-11.983,2.113
				l3.191,18.091l11.964-2.109c0.401,1.21,0.835,2.404,1.304,3.582l-10.521,6.074l9.187,15.908l10.535-6.082
				c0.788,0.995,1.596,1.974,2.442,2.92l-7.817,9.316l14.074,11.807l7.813-9.307c1.075,0.668,2.175,1.307,3.292,1.912l-4.153,11.412
				l17.266,6.283l4.151-11.41c1.238,0.256,2.491,0.467,3.756,0.652v12.148h18.372v-12.148c1.264-0.186,2.516-0.396,3.754-0.652
				l4.15,11.41l17.264-6.287l-4.15-11.408c1.119-0.605,2.213-1.244,3.294-1.914l7.81,9.309l14.073-11.809l-7.814-9.314
				c0.843-0.946,1.656-1.922,2.443-2.92l10.535,6.082l9.185-15.908l-10.525-6.074c0.472-1.178,0.905-2.369,1.306-3.58l11.967,2.107
				l3.188-18.091l-11.982-2.111C410.764,360.336,410.793,359.707,410.793,359.068z M355.387,308.873
				c12.417,2.047,23.324,8.577,30.985,17.887l-16.284,9.401c-4-4.021-9.049-6.999-14.701-8.494V308.873z M366.659,343.887
				c-0.634-0.816-1.322-1.599-2.046-2.326l1.727-1.72c0.794,0.797,1.55,1.654,2.246,2.549L366.659,343.887z M366.984,377.628
				c-0.772,0.827-1.602,1.613-2.468,2.338l-1.564-1.872c0.79-0.659,1.546-1.376,2.25-2.13L366.984,377.628z M369.809,349.199
				c-0.411-0.944-0.884-1.871-1.408-2.755l2.098-1.243c0.576,0.971,1.096,1.989,1.547,3.026L369.809,349.199z M373.203,351.427
				c0.316,1.085,0.567,2.202,0.746,3.32l-2.408,0.383c-0.162-1.016-0.391-2.033-0.679-3.02L373.203,351.427z M368.822,370.953
				l2.138,1.172c-0.542,0.99-1.153,1.958-1.816,2.875l-1.977-1.427C367.771,372.736,368.327,371.855,368.822,370.953z
				 M370.136,368.147c0.377-0.958,0.696-1.949,0.95-2.946l2.365,0.6c-0.278,1.098-0.631,2.187-1.045,3.241L370.136,368.147z
				 M371.66,362.16c0.126-1.021,0.191-2.061,0.191-3.092c0-0.286-0.005-0.57-0.015-0.854l2.438-0.085
				c0.011,0.312,0.016,0.625,0.016,0.938c0,1.131-0.071,2.273-0.211,3.392L371.66,362.16z M363.793,337.588l-1.502,1.921
				c-0.809-0.632-1.668-1.22-2.555-1.749l1.248-2.094C361.959,336.246,362.903,336.892,363.793,337.588z M354.761,332.944
				c1.083,0.318,2.158,0.711,3.197,1.164l-0.975,2.236c-0.947-0.414-1.926-0.77-2.911-1.059L354.761,332.944z M348.061,331.859
				c1.133,0.042,2.271,0.152,3.384,0.333l-0.39,2.407c-1.014-0.164-2.051-0.265-3.083-0.302L348.061,331.859z M364.737,359.066
				c0,9.763-7.915,17.675-17.675,17.675c-9.76,0-17.673-7.912-17.673-17.675c0-9.761,7.913-17.669,17.673-17.669
				C356.822,341.396,364.737,349.305,364.737,359.066z M361.777,381.98c-0.954,0.613-1.953,1.171-2.968,1.657l-1.052-2.2
				c0.924-0.442,1.833-0.95,2.701-1.509L361.777,381.98z M336.752,381.617l-1.014,2.217c-1.031-0.471-2.04-1.012-3.001-1.608
				l1.287-2.072C334.898,380.696,335.817,381.188,336.752,381.617z M322.938,353.35c-0.237,1-0.411,2.026-0.521,3.052l-2.425-0.259
				c0.121-1.128,0.313-2.256,0.572-3.353L322.938,353.35z M321.553,349.533c0.395-1.059,0.863-2.104,1.389-3.106l2.16,1.133
				c-0.479,0.913-0.905,1.863-1.265,2.827L321.553,349.533z M322.279,359.497c0.018,1.033,0.098,2.071,0.243,3.086l-2.415,0.343
				c-0.157-1.116-0.248-2.255-0.267-3.388L322.279,359.497z M323.148,365.614c0.27,0.994,0.607,1.978,1.001,2.928l-2.253,0.934
				c-0.433-1.045-0.804-2.128-1.101-3.219L323.148,365.614z M325.51,371.322c0.507,0.891,1.079,1.763,1.697,2.588l-1.953,1.463
				c-0.679-0.909-1.307-1.865-1.863-2.844L325.51,371.322z M326.71,344.914l-2-1.394c0.647-0.929,1.358-1.825,2.113-2.664
				l1.813,1.632C327.947,343.252,327.299,344.068,326.71,344.914z M329.213,376.271c0.717,0.742,1.485,1.446,2.285,2.091
				l-1.533,1.897c-0.876-0.708-1.721-1.48-2.507-2.297L329.213,376.271z M329.25,338.475c0.856-0.741,1.767-1.435,2.705-2.062
				l1.354,2.029c-0.854,0.57-1.684,1.202-2.462,1.875L329.25,338.475z M344.664,331.946l0.211,2.43
				c-1.027,0.089-2.058,0.245-3.061,0.46l-0.515-2.383C342.403,332.215,343.534,332.044,344.664,331.946z M335.984,336.887
				l-1.09-2.182c1.014-0.507,2.068-0.954,3.131-1.328l0.81,2.301C337.866,336.018,336.907,336.425,335.984,336.887z
				 M338.736,308.875v18.792c-5.649,1.495-10.698,4.473-14.701,8.494l-16.282-9.401C315.415,317.45,326.318,310.919,338.736,308.875
				z M299.42,376.962c-2.09-5.568-3.242-11.596-3.242-17.894c0-6.296,1.152-12.325,3.245-17.891l16.285,9.403
				c-0.73,2.706-1.127,5.551-1.127,8.488c0,2.939,0.396,5.783,1.127,8.49L299.42,376.962z M338.736,409.266
				c-12.419-2.045-23.323-8.577-30.985-17.889l16.283-9.402c4,4.023,9.053,7.002,14.702,8.496V409.266z M342.22,385.865
				c-1.114-0.2-2.226-0.473-3.305-0.811l0.729-2.327c0.982,0.308,1.994,0.556,3.006,0.737L342.22,385.865z M347.063,386.295
				c-0.492,0-0.981-0.014-1.467-0.039l0.128-2.435c1.027,0.055,2.088,0.044,3.099-0.027l0.171,2.433
				C348.364,386.271,347.715,386.294,347.063,386.295z M351.894,383.387c1.01-0.199,2.017-0.465,2.993-0.79l0.769,2.315
				c-1.073,0.355-2.179,0.646-3.288,0.866L351.894,383.387z M355.387,409.268v-18.797c5.652-1.494,10.701-4.473,14.701-8.496
				l16.284,9.402C378.713,400.689,367.807,407.221,355.387,409.268z M394.702,376.962l-16.286-9.404
				c0.729-2.707,1.129-5.55,1.129-8.49c0-2.937-0.399-5.782-1.129-8.491l16.286-9.403c2.093,5.569,3.245,11.595,3.245,17.894
				C397.947,365.366,396.795,371.394,394.702,376.962z"/>
		</g>
		<g>
			<g>
				<g>
					<circle cx="324.994" cy="230.704" r="9.357"/>
				</g>
				<g>
					<path d="M307.462,236.691c1.847,5.414,6.131,9.696,11.542,11.544v15.992c-14.008-2.485-25.051-13.528-27.537-27.536H307.462z"
						/>
				</g>
				<g>
					<path d="M330.982,248.236c5.414-1.849,9.695-6.13,11.544-11.544h15.992c-2.487,14.007-13.529,25.051-27.536,27.536V248.236z"/>
				</g>
				<g>
					<path d="M319.005,213.171c-5.412,1.849-9.696,6.131-11.542,11.543h-15.994c2.487-14.008,13.529-25.049,27.537-27.535V213.171z"
						/>
				</g>
				<g>
					<path d="M342.524,224.715c-1.848-5.413-6.13-9.695-11.542-11.543V197.18c14.007,2.486,25.049,13.527,27.536,27.535H342.524z"/>
				</g>
				<g>
					<path class="rotate1" d="M364.44,217.667c-0.26-0.789-0.543-1.565-0.851-2.332l6.862-3.961l-5.991-10.371l-6.867,3.964
						c-0.512-0.65-1.041-1.286-1.591-1.901l5.096-6.073l-9.176-7.699l-5.092,6.069c-0.703-0.436-1.417-0.855-2.148-1.249
						l2.707-7.436l-11.256-4.096l-2.704,7.435c-0.809-0.167-1.625-0.303-2.449-0.422v-7.922h-11.977v7.922
						c-0.824,0.12-1.641,0.256-2.447,0.422l-2.708-7.437l-11.253,4.098l2.708,7.436c-0.731,0.394-1.446,0.813-2.15,1.249
						l-5.092-6.069l-9.173,7.699l5.095,6.073c-0.549,0.616-1.078,1.252-1.592,1.902l-6.869-3.964l-5.986,10.371l6.86,3.961
						c-0.305,0.767-0.59,1.543-0.85,2.332l-7.801-1.375l-2.08,11.793l7.813,1.379c-0.013,0.412-0.032,0.824-0.032,1.238
						c0,0.416,0.019,0.827,0.032,1.239l-7.813,1.377l2.08,11.795l7.801-1.376c0.26,0.79,0.544,1.567,0.85,2.334l-6.86,3.96
						l5.988,10.374l6.867-3.967c0.514,0.65,1.043,1.286,1.592,1.902l-5.095,6.074l9.173,7.697l5.093-6.067
						c0.703,0.436,1.418,0.854,2.148,1.247l-2.708,7.438l11.255,4.097l2.707-7.436c0.806,0.167,1.623,0.303,2.447,0.421v7.922
						h11.977v-7.922c0.823-0.118,1.64-0.254,2.449-0.421l2.704,7.436l11.254-4.099l-2.706-7.436
						c0.731-0.394,1.446-0.812,2.148-1.248l5.092,6.068l9.174-7.699l-5.095-6.071c0.55-0.617,1.079-1.252,1.592-1.903l6.869,3.967
						l5.988-10.374l-6.862-3.96c0.307-0.766,0.59-1.544,0.851-2.333l7.799,1.375l2.08-11.795l-7.811-1.376
						c0.013-0.414,0.03-0.825,0.03-1.24c0-0.415-0.018-0.827-0.03-1.24l7.811-1.377l-2.08-11.793L364.44,217.667z M330.982,264.228
						v-15.992c5.414-1.849,9.695-6.13,11.544-11.544h15.992C356.031,250.699,344.989,261.742,330.982,264.228z M324.993,221.347
						c5.168,0,9.358,4.189,9.358,9.356c0,5.168-4.19,9.356-9.358,9.356c-5.167,0-9.357-4.188-9.357-9.356
						C315.636,225.537,319.826,221.347,324.993,221.347z M291.468,236.691h15.994c1.847,5.414,6.131,9.696,11.542,11.544v15.992
						C304.997,261.742,293.954,250.7,291.468,236.691z M319.005,197.18v15.992c-5.412,1.849-9.696,6.131-11.542,11.543h-15.994
						C293.955,210.707,304.997,199.666,319.005,197.18z M358.518,224.715h-15.994c-1.848-5.413-6.13-9.695-11.542-11.543V197.18
						C344.989,199.666,356.031,210.707,358.518,224.715z"/>
				</g>
			</g>
			<g>
				<path d="M328.377,221.568"/>
			</g>
		</g>
		<g>
			<g>
				<path class="rotate" d="M506.021,236.027c-0.356-1.077-0.743-2.139-1.162-3.185l9.366-5.408l-8.176-14.16l-9.377,5.414
					c-0.699-0.887-1.424-1.754-2.172-2.596l6.956-8.291l-12.525-10.512l-6.951,8.285c-0.963-0.595-1.938-1.167-2.935-1.704
					l3.696-10.155l-15.365-5.589l-3.696,10.151c-1.103-0.229-2.216-0.416-3.34-0.578v-10.815h-16.354v10.815
					c-1.125,0.163-2.239,0.35-3.34,0.578l-3.697-10.154l-15.365,5.592l3.698,10.155c-0.998,0.538-1.974,1.109-2.935,1.704
					l-6.953-8.285l-12.523,10.509l6.957,8.292c-0.752,0.843-1.474,1.71-2.173,2.598l-9.379-5.414l-8.175,14.16l9.368,5.408
					c-0.422,1.046-0.807,2.108-1.162,3.185l-10.649-1.878l-2.841,16.103l10.668,1.881c-0.018,0.563-0.042,1.124-0.042,1.692
					c0,0.568,0.024,1.128,0.042,1.692l-10.668,1.881l2.841,16.103l10.649-1.878c0.355,1.077,0.74,2.138,1.159,3.185l-9.365,5.409
					l8.177,14.16l9.377-5.414c0.699,0.887,1.421,1.754,2.173,2.597l-6.957,8.292l12.526,10.509l6.952-8.285
					c0.959,0.594,1.935,1.166,2.933,1.704l-3.698,10.153l15.366,5.593l3.696-10.151c1.102,0.228,2.215,0.415,3.34,0.577v10.815
					h16.354V309.95c1.124-0.162,2.237-0.349,3.34-0.577l3.696,10.151l15.361-5.594l-3.692-10.152
					c0.997-0.538,1.972-1.11,2.935-1.704l6.951,8.285l12.523-10.512l-6.954-8.288c0.748-0.843,1.473-1.711,2.172-2.598l9.377,5.414
					l8.173-14.16l-9.363-5.407c0.419-1.048,0.806-2.109,1.162-3.187l10.646,1.878l2.838-16.103l-10.662-1.881
					c0.017-0.564,0.041-1.124,0.041-1.692c0-0.568-0.024-1.128-0.041-1.692l10.667-1.881l-2.843-16.103L506.021,236.027z
					 M498.32,253.824c0,25.491-20.666,46.157-46.157,46.157c-25.492,0-46.159-20.666-46.159-46.157
					c0-25.492,20.667-46.157,46.159-46.157C477.654,207.667,498.32,228.332,498.32,253.824z"/>
			</g>
			<g>
				<path class="rotate1" d="M477.854,245.334c-0.169-0.514-0.354-1.021-0.555-1.52l4.469-2.58l-3.9-6.754l-4.473,2.582
					c-0.334-0.423-0.679-0.836-1.036-1.238l3.318-3.955l-5.975-5.014l-3.316,3.952c-0.459-0.283-0.923-0.556-1.399-0.813
					l1.764-4.844l-7.33-2.667l-1.763,4.843c-0.526-0.109-1.058-0.199-1.594-0.276v-5.159h-7.801v5.159
					c-0.536,0.077-1.067,0.167-1.593,0.276l-1.764-4.844l-7.33,2.667l1.765,4.844c-0.476,0.256-0.941,0.529-1.4,0.813l-3.316-3.952
					l-5.973,5.013l3.317,3.956c-0.358,0.403-0.703,0.816-1.037,1.239l-4.473-2.582l-3.899,6.754l4.469,2.58
					c-0.201,0.499-0.385,1.006-0.554,1.52l-5.081-0.896l-1.354,7.682l5.089,0.897c-0.009,0.269-0.021,0.536-0.021,0.808
					c0,0.271,0.012,0.538,0.021,0.807l-5.089,0.896l1.354,7.682l5.081-0.896c0.169,0.514,0.353,1.02,0.552,1.52l-4.467,2.58
					l3.899,6.754l4.473-2.582c0.334,0.423,0.679,0.836,1.037,1.238l-3.317,3.956l5.975,5.013l3.316-3.952
					c0.457,0.284,0.923,0.556,1.398,0.813l-1.765,4.843l7.331,2.668l1.763-4.842c0.525,0.109,1.057,0.198,1.593,0.275v5.159h7.801
					v-5.159c0.536-0.077,1.067-0.166,1.594-0.275l1.763,4.842l7.328-2.669l-1.762-4.842c0.477-0.257,0.94-0.53,1.399-0.813
					l3.316,3.952l5.973-5.014l-3.316-3.954c0.357-0.402,0.702-0.816,1.036-1.239l4.473,2.582l3.898-6.754l-4.467-2.58
					c0.2-0.5,0.386-1.006,0.555-1.52l5.078,0.896l1.354-7.682l-5.086-0.896c0.008-0.27,0.02-0.537,0.02-0.807
					c0-0.271-0.012-0.539-0.02-0.808l5.088-0.897l-1.356-7.682L477.854,245.334z M474.181,253.824
					c0,12.159-9.857,22.017-22.018,22.017c-12.159,0-22.019-9.857-22.019-22.017c0-12.16,9.859-22.018,22.019-22.018
					C464.323,231.807,474.181,241.664,474.181,253.824z"/>
			</g>
			<g>
				<rect x="449.891" y="204.243" width="4.547" height="100.989"/>
			</g>
			<g>
				<rect x="401.67" y="252.464" width="100.988" height="4.546"/>
			</g>
		</g>
		<g>
			<g>
				<path class="rotate" d="M447.657,129.548c0-0.574-0.022-1.141-0.042-1.71l10.778-1.898l-2.87-16.27l-10.759,1.896
					c-0.359-1.086-0.75-2.16-1.175-3.218l9.463-5.462l-8.261-14.307l-9.47,5.469c-0.708-0.896-1.438-1.771-2.196-2.622l7.028-8.376
					l-12.656-10.621l-7.021,8.37c-0.972-0.599-1.955-1.177-2.966-1.721l3.734-10.257l-15.523-5.65l-3.732,10.256
					c-1.114-0.229-2.243-0.421-3.375-0.583V61.916h-16.522v10.927c-1.136,0.162-2.264,0.354-3.377,0.583l-3.733-10.257
					l-15.521,5.651l3.732,10.257c-1.008,0.543-1.996,1.122-2.963,1.721l-7.024-8.37l-12.653,10.619l7.028,8.378
					c-0.758,0.85-1.489,1.726-2.197,2.622l-9.473-5.469l-8.261,14.307l9.462,5.462c-0.421,1.058-0.811,2.131-1.171,3.218
					l-10.759-1.896l-2.869,16.27l10.778,1.9c-0.02,0.568-0.046,1.135-0.046,1.709c0,0.573,0.026,1.139,0.046,1.707l-10.778,1.903
					l2.869,16.269l10.759-1.898c0.36,1.089,0.75,2.162,1.171,3.22l-9.462,5.461l8.261,14.308l9.473-5.47
					c0.708,0.896,1.438,1.771,2.197,2.624l-7.028,8.376l12.657,10.619l7.021-8.369c0.971,0.599,1.958,1.177,2.963,1.72
					l-3.732,10.259l15.525,5.649l3.73-10.255c1.114,0.228,2.241,0.419,3.377,0.584v10.925h16.522v-10.925
					c1.132-0.165,2.261-0.356,3.375-0.584l3.732,10.255l15.523-5.65l-3.734-10.258c1.006-0.543,1.994-1.121,2.966-1.722l7.021,8.372
					l12.653-10.621l-7.025-8.374c0.758-0.851,1.488-1.728,2.196-2.624l9.474,5.47l8.257-14.308l-9.463-5.461
					c0.422-1.058,0.815-2.131,1.175-3.218l10.759,1.897l2.866-16.269l-10.774-1.9C447.635,130.687,447.657,130.121,447.657,129.548z
					 M434.262,100.561c1.051-0.607,2.396-0.248,3.002,0.804c0.606,1.051,0.246,2.395-0.805,3.002
					c-1.051,0.607-2.396,0.246-3.001-0.806C432.852,102.511,433.211,101.167,434.262,100.561z M421.699,87.291
					c0.78-0.931,2.167-1.052,3.097-0.271c0.93,0.779,1.051,2.166,0.271,3.096s-2.166,1.051-3.096,0.271
					C421.041,89.607,420.92,88.22,421.699,87.291z M405.357,79.118c0.414-1.141,1.675-1.729,2.816-1.313
					c1.14,0.415,1.728,1.676,1.313,2.816c-0.415,1.141-1.676,1.729-2.816,1.313C405.53,81.52,404.94,80.258,405.357,79.118z
					 M389.401,74.831c1.213,0,2.197,0.984,2.197,2.198c0,1.213-0.984,2.196-2.197,2.196s-2.197-0.983-2.197-2.196
					C387.204,75.814,388.188,74.831,389.401,74.831z M370.745,78.456c1.14-0.415,2.401,0.173,2.816,1.313
					c0.416,1.14-0.173,2.401-1.314,2.816c-1.14,0.416-2.4-0.174-2.816-1.313C369.016,80.132,369.603,78.871,370.745,78.456z
					 M354.453,88.244c0.93-0.78,2.316-0.659,3.096,0.271c0.78,0.93,0.659,2.316-0.271,3.096c-0.929,0.78-2.315,0.659-3.095-0.271
					C353.402,90.41,353.522,89.024,354.453,88.244z M336.303,120.984c0.21-1.195,1.351-1.994,2.545-1.783
					c1.195,0.211,1.993,1.351,1.782,2.546c-0.21,1.194-1.351,1.993-2.545,1.782C336.89,123.318,336.091,122.179,336.303,120.984z
					 M339.178,141.769c-1.195,0.211-2.334-0.586-2.545-1.782c-0.211-1.195,0.587-2.334,1.782-2.546
					c1.195-0.21,2.334,0.588,2.546,1.783C341.172,140.418,340.373,141.559,339.178,141.769z M342.491,103.014
					c0.606-1.051,1.951-1.411,3.002-0.805c1.051,0.607,1.411,1.952,0.804,3.002c-0.606,1.051-1.95,1.411-3.001,0.803
					C342.245,105.408,341.884,104.064,342.491,103.014z M346.445,158.535c-1.051,0.606-2.396,0.248-3.002-0.805
					c-0.606-1.05-0.247-2.395,0.804-3.002c1.052-0.606,2.395-0.246,3.001,0.806C347.856,156.583,347.496,157.927,346.445,158.535z
					 M359.006,171.804c-0.779,0.93-2.166,1.051-3.095,0.271c-0.929-0.78-1.051-2.166-0.271-3.097c0.78-0.93,2.167-1.05,3.096-0.27
					C359.665,169.489,359.787,170.875,359.006,171.804z M375.35,179.977c-0.414,1.141-1.676,1.729-2.816,1.313
					c-1.14-0.416-1.729-1.676-1.314-2.816c0.417-1.14,1.677-1.728,2.817-1.313C375.177,177.576,375.765,178.837,375.35,179.977z
					 M391.305,184.265c-1.212,0-2.198-0.984-2.198-2.197c0-1.214,0.983-2.197,2.199-2.197c1.213-0.001,2.195,0.983,2.195,2.197
					C393.503,183.281,392.52,184.265,391.305,184.265z M409.963,180.639c-1.141,0.415-2.402-0.173-2.818-1.313
					c-0.414-1.14,0.175-2.401,1.315-2.816c1.139-0.416,2.4,0.173,2.815,1.313C411.691,178.963,411.103,180.224,409.963,180.639z
					 M426.254,170.852c-0.93,0.779-2.315,0.659-3.096-0.271c-0.781-0.93-0.659-2.315,0.271-3.096c0.93-0.78,2.315-0.659,3.095,0.271
					C427.305,168.685,427.185,170.071,426.254,170.852z M432.544,142.417l-6.966-1.228c-0.234,0.706-0.487,1.397-0.758,2.083
					l6.125,3.537l-5.349,9.263l-6.133-3.541c-0.456,0.58-0.93,1.148-1.42,1.699l4.548,5.421l-8.19,6.875l-4.55-5.419
					c-0.628,0.388-1.266,0.762-1.916,1.114l2.418,6.642l-10.052,3.66l-2.414-6.641c-0.723,0.147-1.453,0.27-2.188,0.377v7.073
					h-10.695v-7.073c-0.733-0.107-1.465-0.229-2.184-0.377l-2.418,6.641l-10.052-3.66l2.418-6.642
					c-0.651-0.352-1.291-0.726-1.917-1.114l-4.55,5.419l-8.19-6.875l4.549-5.421c-0.493-0.554-0.964-1.122-1.423-1.699l-6.133,3.541
					l-5.345-9.263l6.126-3.537c-0.276-0.686-0.528-1.379-0.763-2.083l-6.963,1.228l-1.859-10.531l6.979-1.233
					c-0.011-0.367-0.027-0.734-0.027-1.105c0-0.372,0.016-0.739,0.027-1.106l-6.979-1.231l1.859-10.532l6.963,1.229
					c0.234-0.707,0.486-1.399,0.763-2.084l-6.126-3.537l5.345-9.263l6.133,3.544c0.459-0.58,0.93-1.148,1.423-1.701l-4.549-5.422
					l8.19-6.873l4.55,5.417c0.626-0.388,1.262-0.762,1.917-1.114l-2.418-6.642l10.052-3.66l2.414,6.642
					c0.723-0.149,1.455-0.271,2.188-0.379v-7.072H395.7v7.072c0.734,0.107,1.465,0.23,2.188,0.379l2.414-6.641l10.052,3.658
					l-2.418,6.642c0.654,0.352,1.288,0.726,1.916,1.114l4.55-5.417l8.19,6.873l-4.548,5.424c0.49,0.552,0.964,1.12,1.42,1.7
					l6.133-3.544l5.349,9.263l-6.125,3.537c0.271,0.685,0.523,1.377,0.758,2.084l6.966-1.229l1.856,10.532l-6.976,1.23
					c0.012,0.369,0.027,0.735,0.027,1.107c0,0.371-0.016,0.738-0.027,1.107l6.976,1.23L432.544,142.417z M438.216,156.081
					c-0.607,1.051-1.951,1.412-3.002,0.805c-1.051-0.607-1.412-1.951-0.805-3.001c0.607-1.05,1.951-1.411,3.002-0.805
					C438.463,153.687,438.823,155.031,438.216,156.081z M441.527,117.326c1.196-0.211,2.336,0.587,2.546,1.783
					c0.212,1.194-0.587,2.334-1.782,2.545c-1.195,0.211-2.335-0.588-2.544-1.783C439.535,118.677,440.333,117.536,441.527,117.326z
					 M444.404,138.111c-0.21,1.196-1.351,1.994-2.546,1.784c-1.195-0.211-1.993-1.351-1.781-2.546
					c0.21-1.194,1.35-1.993,2.545-1.782C443.816,135.777,444.615,136.917,444.404,138.111z"/>
			</g>
			<g>
				<path class="rotate1" d="M415.603,121.204c-0.167-0.505-0.348-1.003-0.545-1.493l4.391-2.535l-3.833-6.639l-4.396,2.538
					c-0.327-0.417-0.667-0.823-1.019-1.217l3.263-3.887l-5.873-4.928l-3.259,3.884c-0.452-0.279-0.908-0.547-1.376-0.798l1.733-4.76
					l-7.204-2.621l-1.732,4.759c-0.516-0.107-1.039-0.194-1.566-0.271v-5.07h-7.667v5.07c-0.527,0.076-1.05,0.164-1.566,0.271
					l-1.733-4.76l-7.203,2.622l1.733,4.76c-0.468,0.251-0.925,0.52-1.376,0.798l-3.259-3.884l-5.872,4.927l3.262,3.888
					c-0.353,0.395-0.691,0.801-1.019,1.218l-4.396-2.538l-3.833,6.639l4.392,2.535c-0.197,0.49-0.378,0.988-0.545,1.493l-4.992-0.88
					l-1.332,7.549l5.001,0.882c-0.008,0.264-0.02,0.526-0.02,0.793s0.012,0.529,0.02,0.793l-5.001,0.881l1.332,7.549l4.992-0.88
					c0.167,0.505,0.348,1.002,0.544,1.493l-4.391,2.536l3.833,6.638l4.396-2.538c0.328,0.416,0.667,0.823,1.019,1.218l-3.262,3.888
					l5.874,4.926l3.259-3.884c0.45,0.279,0.906,0.546,1.375,0.799l-1.733,4.76l7.204,2.621l1.732-4.758
					c0.517,0.106,1.039,0.195,1.566,0.27v5.07h7.667v-5.07c0.527-0.075,1.05-0.164,1.566-0.27l1.732,4.758l7.202-2.622l-1.731-4.759
					c0.468-0.252,0.924-0.52,1.376-0.799l3.259,3.884l5.871-4.928l-3.261-3.886c0.352-0.395,0.691-0.802,1.019-1.218l4.396,2.538
					l3.833-6.638l-4.391-2.535c0.197-0.491,0.378-0.989,0.545-1.494l4.99,0.88l1.331-7.549l-4.998-0.881
					c0.008-0.265,0.019-0.527,0.019-0.793s-0.011-0.529-0.019-0.793l5-0.882l-1.333-7.549L415.603,121.204z M411.992,129.548
					c0,11.951-9.688,21.638-21.638,21.638c-11.953,0-21.641-9.688-21.641-21.638s9.688-21.639,21.641-21.639
					C402.305,107.909,411.992,117.597,411.992,129.548z"/>
			</g>
		</g>
		<g>
			<g>
				<path d="M549.517,457.617c-18.337,0-33.201,14.863-33.201,33.197s14.864,33.197,33.201,33.197
					c18.333,0,33.197-14.863,33.197-33.197S567.85,457.617,549.517,457.617z M549.516,512.363c-11.902,0-21.55-9.648-21.55-21.549
					s9.647-21.547,21.55-21.547c11.9,0,21.548,9.646,21.548,21.547S561.416,512.363,549.516,512.363z"/>
			</g>
			<g>
				<path d="M549.516,475.697c-8.351,0-15.118,6.77-15.118,15.117s6.768,15.117,15.118,15.117c8.349,0,15.116-6.77,15.116-15.117
					S557.864,475.697,549.516,475.697z M549.515,500.625c-5.419,0-9.812-4.391-9.812-9.811s4.393-9.813,9.812-9.813
					s9.813,4.393,9.813,9.813S554.934,500.625,549.515,500.625z"/>
			</g>
			<g>
				<path d="M606.82,490.814c0-0.574-0.023-1.143-0.042-1.711l10.778-1.898l-2.87-16.27l-10.759,1.896
					c-0.359-1.086-0.75-2.16-1.174-3.219l9.461-5.461l-8.262-14.309l-9.468,5.471c-0.708-0.896-1.439-1.771-2.196-2.623l7.028-8.375
					l-12.656-10.621l-7.021,8.369c-0.972-0.6-1.955-1.176-2.965-1.721l3.734-10.256l-15.524-5.65l-3.732,10.256
					c-1.114-0.23-2.242-0.422-3.374-0.584v-10.928h-16.521v10.928c-1.136,0.162-2.266,0.354-3.379,0.584l-3.734-10.258
					l-15.521,5.652l3.732,10.256c-1.009,0.545-1.996,1.121-2.963,1.721l-7.024-8.369l-12.654,10.619l7.029,8.377
					c-0.758,0.852-1.488,1.727-2.196,2.623l-9.473-5.471l-8.261,14.309l9.461,5.461c-0.42,1.059-0.812,2.133-1.17,3.219
					l-10.759-1.896l-2.869,16.27l10.776,1.9c-0.02,0.566-0.045,1.135-0.045,1.709s0.025,1.139,0.045,1.707l-10.776,1.902
					l2.869,16.27l10.759-1.898c0.358,1.09,0.75,2.162,1.17,3.219l-9.461,5.463l8.261,14.309l9.473-5.471
					c0.708,0.896,1.438,1.771,2.196,2.623l-7.029,8.377l12.658,10.619l7.021-8.369c0.971,0.6,1.958,1.176,2.963,1.719l-3.732,10.26
					l15.525,5.648l3.729-10.254c1.113,0.227,2.243,0.418,3.379,0.584v10.926h16.521v-10.926c1.132-0.166,2.26-0.357,3.374-0.584
					l3.732,10.254l15.524-5.65l-3.734-10.258c1.006-0.543,1.993-1.119,2.965-1.721l7.021,8.371l12.651-10.621l-7.023-8.373
					c0.757-0.852,1.488-1.729,2.196-2.625l9.475,5.471l8.255-14.309l-9.461-5.463c0.42-1.057,0.814-2.129,1.174-3.217l10.759,1.896
					l2.865-16.27l-10.773-1.9C606.797,491.953,606.82,491.389,606.82,490.814z M590.313,490.814c0,0.408-0.017,0.811-0.029,1.217
					l7.669,1.352l-2.042,11.584l-7.656-1.352c-0.257,0.775-0.535,1.539-0.837,2.293l6.736,3.889l-5.881,10.184l-6.744-3.895
					c-0.503,0.639-1.023,1.264-1.562,1.871l5.002,5.961l-9.007,7.561l-5.001-5.959c-0.692,0.428-1.392,0.838-2.11,1.227l2.657,7.301
					l-11.05,4.023l-2.658-7.301c-0.793,0.162-1.594,0.299-2.403,0.414v7.779h-11.762v-7.779c-0.809-0.115-1.609-0.252-2.402-0.414
					l-2.656,7.301l-11.054-4.023l2.658-7.301c-0.718-0.389-1.418-0.799-2.108-1.227l-5.001,5.959l-9.01-7.559l5.005-5.965
					c-0.54-0.605-1.061-1.23-1.563-1.869l-6.744,3.895l-5.88-10.184l6.735-3.893c-0.301-0.75-0.578-1.514-0.834-2.289l-7.66,1.352
					l-2.042-11.584l7.672-1.352c-0.012-0.406-0.03-0.809-0.03-1.217s0.019-0.811,0.03-1.217l-7.672-1.352l2.042-11.584l7.66,1.352
					c0.256-0.775,0.533-1.539,0.834-2.291l-6.735-3.889l5.878-10.186l6.746,3.895c0.503-0.639,1.023-1.264,1.563-1.869l-5.005-5.965
					l9.008-7.559l5.002,5.959c0.691-0.428,1.392-0.84,2.109-1.227l-2.658-7.301l11.051-4.025l2.659,7.305
					c0.793-0.164,1.594-0.299,2.402-0.416v-7.779h11.762v7.779c0.81,0.117,1.61,0.252,2.403,0.416l2.658-7.301l11.051,4.021
					l-2.658,7.301c0.719,0.387,1.418,0.799,2.11,1.227l5.001-5.959l9.009,7.561l-5.004,5.965c0.538,0.604,1.059,1.229,1.562,1.867
					l6.744-3.895l5.882,10.186l-6.737,3.889c0.302,0.752,0.58,1.516,0.837,2.291l7.656-1.352l2.046,11.584l-7.673,1.352
					C590.296,490.004,590.313,490.406,590.313,490.814z"/>
			</g>
		</g>
		<g>
			<g>
				<path d="M270.67,462.752l-3.808,0.674c-0.128-0.387-0.266-0.766-0.416-1.141l3.351-1.936l-2.924-5.064l-3.355,1.938
					c-0.25-0.318-0.509-0.629-0.776-0.93l2.488-2.965l-4.48-3.762l-2.487,2.963c-0.345-0.213-0.692-0.418-1.05-0.609l1.323-3.633
					l-5.497-1.998l-1.323,3.631c-0.395-0.082-0.792-0.148-1.195-0.207v-3.871h-5.85v3.871c-0.402,0.059-0.8,0.125-1.195,0.207
					l-1.322-3.633l-5.497,2l1.322,3.633c-0.356,0.191-0.705,0.396-1.049,0.609l-2.488-2.963l-4.48,3.76l2.489,2.965
					c-0.268,0.303-0.527,0.613-0.777,0.932l-3.356-1.938l-2.924,5.064l3.351,1.936c-0.15,0.375-0.288,0.754-0.415,1.141
					l-3.811-0.674l-1.016,5.762l3.816,0.672c-0.006,0.203-0.016,0.402-0.016,0.605s0.009,0.404,0.016,0.605l-3.816,0.674l1.016,5.76
					l3.811-0.672c0.126,0.385,0.265,0.766,0.414,1.139l-3.35,1.936l2.925,5.064l3.355-1.936c0.25,0.318,0.509,0.629,0.777,0.93
					l-2.489,2.967l4.481,3.76l2.488-2.965c0.343,0.213,0.691,0.418,1.048,0.609l-1.322,3.633l5.498,2l1.321-3.631
					c0.395,0.082,0.792,0.148,1.195,0.207v3.869h5.85v-3.869c0.403-0.059,0.801-0.125,1.195-0.207l1.323,3.631l5.496-2l-1.322-3.633
					c0.357-0.191,0.705-0.396,1.05-0.609l2.487,2.965l4.48-3.762l-2.488-2.965c0.268-0.301,0.526-0.611,0.776-0.93l3.355,1.936
					l2.924-5.064l-3.351-1.934c0.15-0.375,0.288-0.756,0.416-1.141l3.808,0.672l1.016-5.76l-3.815-0.674
					c0.006-0.201,0.015-0.402,0.015-0.605s-0.009-0.402-0.015-0.605l3.816-0.672L270.67,462.752z"/>
			</g>
			<g>
				<path d="M304.898,469.791c0-0.574-0.023-1.141-0.042-1.711l10.778-1.898l-2.87-16.27l-10.759,1.896
					c-0.359-1.086-0.75-2.16-1.174-3.217l9.461-5.463l-8.26-14.307l-9.469,5.469c-0.708-0.896-1.439-1.771-2.196-2.623l7.029-8.375
					l-12.657-10.621l-7.021,8.371c-0.972-0.602-1.955-1.178-2.965-1.723l3.734-10.256l-15.524-5.65l-3.733,10.258
					c-1.114-0.232-2.242-0.424-3.374-0.584v-10.93h-16.521v10.93c-1.136,0.16-2.266,0.352-3.378,0.584l-3.734-10.26l-15.521,5.652
					l3.732,10.256c-1.009,0.545-1.996,1.121-2.963,1.723l-7.024-8.371l-12.654,10.619l7.028,8.377
					c-0.757,0.852-1.488,1.727-2.195,2.623l-9.473-5.469l-8.261,14.307l9.461,5.463c-0.421,1.057-0.812,2.131-1.17,3.217
					l-10.759-1.896l-2.869,16.27l10.777,1.9c-0.02,0.568-0.046,1.135-0.046,1.709s0.026,1.139,0.046,1.707l-10.777,1.902
					l2.869,16.27l10.759-1.898c0.358,1.09,0.749,2.162,1.17,3.219l-9.461,5.463l8.261,14.309l9.473-5.471
					c0.707,0.896,1.438,1.771,2.195,2.623l-7.028,8.377l12.658,10.619l7.021-8.367c0.971,0.598,1.958,1.176,2.963,1.719
					l-3.732,10.26l15.524,5.648l3.73-10.256c1.112,0.229,2.242,0.42,3.378,0.584v10.926h16.521v-10.926
					c1.132-0.164,2.26-0.355,3.374-0.584l3.733,10.256l15.524-5.65l-3.734-10.258c1.006-0.543,1.994-1.121,2.965-1.723l7.021,8.371
					l12.652-10.621l-7.024-8.373c0.757-0.85,1.489-1.729,2.196-2.625l9.474,5.471l8.255-14.309l-9.461-5.463
					c0.421-1.057,0.815-2.129,1.174-3.217l10.759,1.896l2.865-16.27l-10.773-1.898C304.875,470.93,304.898,470.365,304.898,469.791z
					 M276.096,469.791c0,0.287-0.011,0.566-0.02,0.852l5.358,0.943l-1.424,8.094l-5.352-0.943c-0.179,0.539-0.375,1.074-0.584,1.6
					l4.706,2.717l-4.106,7.117l-4.712-2.721c-0.352,0.445-0.716,0.881-1.092,1.305l3.494,4.164l-6.293,5.285l-3.492-4.164
					c-0.483,0.297-0.975,0.586-1.475,0.855l1.856,5.102l-7.721,2.811l-1.856-5.1c-0.554,0.113-1.115,0.207-1.678,0.289v5.436h-8.217
					v-5.436c-0.565-0.082-1.126-0.176-1.68-0.289l-1.855,5.1l-7.721-2.809l1.855-5.104c-0.5-0.27-0.99-0.559-1.474-0.855
					l-3.492,4.164l-6.296-5.283l3.497-4.166c-0.377-0.424-0.74-0.859-1.093-1.305l-4.711,2.721l-4.108-7.117l4.706-2.717
					c-0.209-0.525-0.404-1.061-0.582-1.602l-5.351,0.945l-1.427-8.094l5.36-0.945c-0.01-0.283-0.022-0.563-0.022-0.85
					c0-0.285,0.013-0.566,0.022-0.85l-5.36-0.945l1.427-8.092l5.351,0.943c0.178-0.541,0.373-1.074,0.582-1.602l-4.706-2.715
					l4.108-7.117l4.711,2.721c0.353-0.447,0.716-0.883,1.093-1.305l-3.497-4.168l6.294-5.281l3.494,4.164
					c0.481-0.299,0.973-0.586,1.474-0.855l-1.855-5.104l7.719-2.811l1.858,5.102c0.554-0.113,1.115-0.209,1.68-0.289v-5.436h8.217
					v5.436c0.563,0.08,1.125,0.176,1.678,0.289l1.856-5.102l7.721,2.811l-1.856,5.104c0.502,0.27,0.991,0.557,1.475,0.855
					l3.492-4.164l6.294,5.283l-3.495,4.166c0.376,0.422,0.741,0.857,1.092,1.305l4.709-2.721l4.108,7.117l-4.706,2.715
					c0.211,0.527,0.405,1.061,0.584,1.602l5.352-0.943l1.427,8.092l-5.361,0.945C276.085,469.225,276.096,469.506,276.096,469.791z"
					/>
			</g>
		</g>
		<g>
			<g>
				<path d="M486.16,126.976l-3.943,2.277c6.878,9.838,17.897,16.555,30.536,17.628v-4.547
					C501.792,141.289,492.231,135.466,486.16,126.976z"/>
			</g>
			<g>
				<path d="M479.258,105.452c0-5.479,1.199-10.678,3.334-15.356l-3.945-2.279c-2.513,5.356-3.922,11.331-3.922,17.635
					c0,6.303,1.409,12.277,3.922,17.633l3.945-2.277C480.457,116.127,479.258,110.93,479.258,105.452z"/>
			</g>
			<g>
				<path d="M512.753,68.568v-4.547c-12.639,1.074-23.658,7.793-30.536,17.629l3.943,2.275
					C492.231,75.436,501.792,69.612,512.753,68.568z"/>
			</g>
			<g>
				<path d="M546.472,83.926l3.942-2.277c-6.878-9.836-17.898-16.553-30.537-17.627v4.545
					C530.839,69.612,540.399,75.436,546.472,83.926z"/>
			</g>
			<g>
				<path d="M519.877,142.335v4.546c12.639-1.073,23.659-7.79,30.539-17.628l-3.944-2.277
					C540.4,135.466,530.839,141.289,519.877,142.335z"/>
			</g>
			<g>
				<path d="M550.041,90.095c2.134,4.678,3.333,9.877,3.333,15.356c0,5.478-1.199,10.676-3.333,15.358l3.945,2.277
					c2.511-5.355,3.922-11.329,3.922-17.635c0-6.305-1.411-12.279-3.922-17.635L550.041,90.095z"/>
			</g>
			<g>
				<path d="M563.326,105.452c0-0.47-0.02-0.936-0.035-1.403l8.839-1.558l-2.354-13.346l-8.824,1.556
					c-0.296-0.892-0.616-1.771-0.962-2.641l7.762-4.483l-6.776-11.735l-7.771,4.486c-0.579-0.734-1.178-1.453-1.8-2.149l5.766-6.872
					l-10.383-8.713l-5.76,6.867c-0.797-0.493-1.605-0.965-2.432-1.414l3.063-8.415l-12.734-4.634l-3.063,8.415
					c-0.912-0.188-1.836-0.345-2.769-0.479v-8.964H509.54v8.964c-0.933,0.134-1.856,0.291-2.771,0.479l-3.063-8.415l-12.733,4.634
					l3.063,8.415c-0.826,0.449-1.635,0.92-2.432,1.414l-5.761-6.867l-10.381,8.709l5.766,6.874
					c-0.622,0.698-1.222,1.417-1.802,2.151l-7.771-4.486l-6.776,11.735l7.765,4.483c-0.348,0.87-0.668,1.749-0.964,2.641
					l-8.826-1.556l-2.353,13.346l8.84,1.56c-0.015,0.466-0.034,0.932-0.034,1.402c0,0.471,0.02,0.936,0.034,1.402l-8.84,1.558
					l2.353,13.346l8.826-1.556c0.296,0.894,0.616,1.775,0.962,2.641l-7.763,4.482l6.776,11.734l7.771-4.484
					c0.58,0.734,1.18,1.453,1.802,2.15l-5.766,6.874l10.381,8.709l5.764-6.866c0.794,0.493,1.604,0.966,2.429,1.412l-3.063,8.415
					l12.735,4.635l3.063-8.412c0.913,0.188,1.838,0.343,2.77,0.475v8.965h13.552v-8.965c0.933-0.132,1.856-0.287,2.769-0.475
					l3.063,8.412l12.733-4.635l-3.063-8.415c0.826-0.446,1.636-0.919,2.433-1.412l5.76,6.866l10.38-8.712l-5.764-6.87
					c0.622-0.697,1.221-1.417,1.801-2.152l7.772,4.484l6.774-11.734l-7.761-4.48c0.346-0.868,0.666-1.749,0.962-2.641l8.825,1.554
					l2.353-13.346l-8.839-1.558C563.307,106.387,563.326,105.923,563.326,105.452z M519.877,64.021
					c12.639,1.074,23.659,7.792,30.537,17.627l-3.942,2.277c-6.072-8.49-15.633-14.314-26.595-15.36V64.021z M512.753,64.021v4.547
					c-10.961,1.044-20.521,6.868-26.593,15.358l-3.943-2.275C489.095,71.815,500.114,65.096,512.753,64.021z M478.646,123.085
					c-2.513-5.356-3.922-11.331-3.922-17.633c0-6.305,1.409-12.279,3.922-17.635l3.945,2.279c-2.135,4.678-3.334,9.877-3.334,15.356
					c0,5.478,1.199,10.676,3.334,15.356L478.646,123.085z M512.753,146.881c-12.639-1.073-23.658-7.79-30.536-17.628l3.943-2.277
					c6.071,8.491,15.632,14.313,26.593,15.358V146.881z M519.817,134.118h-7.004v-4.63c-0.481-0.07-0.959-0.15-1.431-0.247
					l-1.582,4.346l-6.579-2.395l1.582-4.348c-0.427-0.23-0.846-0.475-1.255-0.729l-2.978,3.548l-5.365-4.5l2.98-3.551
					c-0.322-0.361-0.631-0.732-0.932-1.112l-4.016,2.319l-3.5-6.064l4.009-2.316c-0.179-0.448-0.344-0.903-0.496-1.364l-4.561,0.804
					l-1.216-6.896l4.568-0.806c-0.008-0.241-0.019-0.481-0.019-0.724c0-0.244,0.011-0.484,0.019-0.725l-4.568-0.806l1.216-6.896
					l4.561,0.805c0.152-0.46,0.317-0.916,0.497-1.364l-4.01-2.317l3.5-6.063l4.016,2.318c0.301-0.38,0.609-0.751,0.932-1.113
					l-2.98-3.551l5.363-4.5l2.978,3.546c0.411-0.253,0.83-0.499,1.257-0.729l-1.582-4.35l6.578-2.394l1.583,4.348
					c0.472-0.098,0.949-0.179,1.431-0.248v-4.631h7.004v4.631c0.481,0.069,0.958,0.15,1.431,0.248l1.583-4.348l6.579,2.394
					l-1.583,4.35c0.429,0.23,0.845,0.475,1.258,0.729l2.978-3.546l5.363,4.5l-2.98,3.551c0.321,0.36,0.631,0.731,0.932,1.112
					l4.017-2.318l3.499,6.063l-4.01,2.317c0.178,0.448,0.345,0.903,0.499,1.364l4.557-0.805l1.218,6.896l-4.568,0.806
					c0.008,0.241,0.019,0.481,0.019,0.725c0,0.242-0.011,0.482-0.019,0.724l4.567,0.806l-1.217,6.896l-4.557-0.804
					c-0.154,0.461-0.321,0.916-0.499,1.365l4.01,2.315l-3.499,6.064l-4.017-2.319c-0.301,0.38-0.61,0.752-0.932,1.112l2.979,3.55
					l-5.362,4.502l-2.978-3.548c-0.413,0.254-0.829,0.499-1.258,0.729l1.582,4.348l-6.578,2.395l-1.583-4.346
					c-0.473,0.096-0.949,0.177-1.431,0.247V134.118z M519.877,146.881v-4.546c10.962-1.046,20.523-6.869,26.595-15.359l3.944,2.277
					C543.536,139.091,532.516,145.808,519.877,146.881z M553.986,123.087l-3.945-2.277c2.134-4.682,3.333-9.88,3.333-15.358
					c0-5.479-1.199-10.678-3.333-15.356l3.945-2.279c2.511,5.356,3.922,11.331,3.922,17.635
					C557.908,111.758,556.497,117.731,553.986,123.087z"/>
			</g>
		</g>
		<g>
			<g>
				<path d="M426.964,440.623v25.521l18.044-18.045l-3.601-3.021l-2.978,3.547c-0.412-0.254-0.829-0.498-1.257-0.729l1.584-4.35
					l-6.58-2.395l-1.584,4.35c-0.472-0.098-0.949-0.18-1.431-0.248v-4.631H426.964z"/>
			</g>
			<g>
				<path d="M422.516,470.592H398.11l-1.289,0.229l1.217,6.896l4.56-0.805c0.153,0.461,0.316,0.914,0.496,1.363l-4.009,2.316
					l3.5,6.064l4.016-2.318c0.3,0.379,0.608,0.75,0.931,1.111l-0.662,0.789L422.516,470.592z"/>
			</g>
			<g>
				<path d="M428.808,467.986h24.411l1.283-0.227l-1.218-6.896l-4.558,0.805c-0.154-0.461-0.319-0.916-0.498-1.363l4.01-2.318
					l-3.5-6.061l-4.017,2.316c-0.299-0.379-0.609-0.752-0.93-1.111l0.668-0.797L428.808,467.986z"/>
			</g>
			<g>
				<path d="M419.145,441.152l-6.578,2.395l1.584,4.35c-0.429,0.23-0.847,0.475-1.258,0.729l-2.977-3.547l-3.602,3.021
					l18.044,18.045v-25.521h-2.199v4.631c-0.481,0.068-0.958,0.15-1.431,0.248L419.145,441.152z"/>
			</g>
			<g>
				<path d="M444.453,486.238l-0.661-0.789c0.32-0.359,0.631-0.732,0.93-1.111l4.017,2.318l3.5-6.064l-4.01-2.314
					c0.179-0.451,0.344-0.904,0.498-1.365l4.558,0.805l1.216-6.896l-1.29-0.229h-24.402L444.453,486.238z"/>
			</g>
			<g>
				<path d="M455.817,447.766l3.942-2.277c-6.878-9.836-17.899-16.553-30.536-17.629v4.547
					C440.185,433.451,449.745,439.275,455.817,447.766z"/>
			</g>
			<g>
				<path d="M422.098,432.408v-4.549c-12.637,1.076-23.657,7.793-30.535,17.631l3.942,2.275
					C401.577,439.275,411.138,433.451,422.098,432.408z"/>
			</g>
			<g>
				<path d="M406.869,452.342l0.662,0.789c-0.322,0.359-0.631,0.732-0.931,1.111l-4.016-2.316l-3.5,6.061l4.01,2.318
					c-0.181,0.447-0.344,0.902-0.497,1.363l-4.56-0.805l-1.217,6.896l1.283,0.227h24.41L406.869,452.342z"/>
			</g>
			<g>
				<path d="M459.386,453.934c2.134,4.68,3.333,9.877,3.333,15.357c0,5.479-1.199,10.676-3.333,15.357l3.946,2.277
					c2.512-5.355,3.921-11.33,3.921-17.635c0-6.307-1.409-12.279-3.921-17.635L459.386,453.934z"/>
			</g>
			<g>
				<path d="M388.603,469.291c0-5.48,1.2-10.678,3.335-15.357l-3.946-2.277c-2.513,5.355-3.922,11.328-3.922,17.635
					c0,6.303,1.41,12.277,3.922,17.633l3.946-2.277C389.803,479.967,388.603,474.77,388.603,469.291z"/>
			</g>
			<g>
				<path d="M432.177,497.426l6.578-2.396l-1.582-4.346c0.428-0.23,0.845-0.477,1.257-0.73l2.978,3.549l3.601-3.023l-18.044-18.043
					v25.521h2.198v-4.631c0.481-0.068,0.959-0.15,1.431-0.248L432.177,497.426z"/>
			</g>
			<g>
				<path d="M429.224,506.174v4.547c12.637-1.074,23.658-7.791,30.538-17.629l-3.944-2.277
					C449.745,499.307,440.185,505.127,429.224,506.174z"/>
			</g>
			<g>
				<path d="M424.358,497.957v-25.521l-18.044,18.045l3.602,3.021l2.978-3.549c0.41,0.254,0.828,0.5,1.257,0.73l-1.584,4.346
					l6.58,2.396l1.582-4.348c0.473,0.098,0.949,0.18,1.431,0.248v4.631H424.358z"/>
			</g>
			<g>
				<path d="M395.505,490.814l-3.942,2.277c6.877,9.838,17.898,16.555,30.535,17.629v-4.549
					C411.138,505.127,401.577,499.307,395.505,490.814z"/>
			</g>
			<g>
				<path d="M472.673,469.291c0-0.471-0.021-0.938-0.036-1.402l8.84-1.561l-2.354-13.344l-8.825,1.555
					c-0.295-0.891-0.615-1.77-0.962-2.641l7.763-4.482l-6.776-11.734l-7.771,4.486c-0.579-0.734-1.18-1.453-1.801-2.15l5.766-6.871
					l-10.383-8.713l-5.76,6.867c-0.796-0.494-1.605-0.967-2.432-1.414l3.063-8.414l-12.735-4.635l-3.062,8.414
					c-0.912-0.188-1.837-0.344-2.77-0.479v-8.965h-13.552v8.965c-0.933,0.135-1.856,0.291-2.771,0.479l-3.063-8.414l-12.733,4.635
					l3.063,8.414c-0.827,0.447-1.636,0.92-2.432,1.414l-5.761-6.867l-10.381,8.709l5.766,6.873
					c-0.623,0.697-1.221,1.418-1.802,2.152L381,435.682l-6.774,11.734l7.763,4.482c-0.348,0.871-0.667,1.75-0.963,2.641
					l-8.826-1.555l-2.353,13.344l8.84,1.561c-0.015,0.465-0.035,0.932-0.035,1.402s0.02,0.936,0.035,1.4l-8.84,1.559l2.353,13.346
					l8.826-1.557c0.295,0.895,0.615,1.775,0.961,2.641l-7.761,4.484l6.775,11.732l7.771-4.484c0.581,0.734,1.179,1.453,1.802,2.152
					l-5.766,6.871l10.381,8.711l5.763-6.865c0.794,0.494,1.604,0.965,2.43,1.412l-3.063,8.414l12.735,4.635l3.063-8.412
					c0.912,0.188,1.837,0.344,2.769,0.475v8.965h13.552v-8.965c0.933-0.131,1.857-0.287,2.77-0.475l3.062,8.412l12.734-4.635
					l-3.063-8.414c0.826-0.447,1.637-0.918,2.433-1.412l5.76,6.865l10.38-8.711l-5.764-6.871c0.622-0.697,1.221-1.418,1.802-2.152
					l7.771,4.484l6.774-11.732l-7.762-4.48c0.347-0.869,0.667-1.75,0.962-2.643l8.826,1.555l2.354-13.346l-8.84-1.559
					C472.651,470.227,472.673,469.762,472.673,469.291z M429.224,427.859c12.637,1.076,23.658,7.793,30.536,17.629l-3.942,2.277
					c-6.072-8.49-15.633-14.314-26.594-15.359V427.859z M454.5,470.82l-1.216,6.896l-4.558-0.805
					c-0.154,0.461-0.319,0.914-0.498,1.365l4.01,2.314l-3.5,6.064l-4.017-2.318c-0.299,0.379-0.609,0.752-0.93,1.111l0.661,0.789
					l-15.646-15.646h24.402L454.5,470.82z M406.601,484.338l-4.016,2.318l-3.5-6.064l4.009-2.316
					c-0.18-0.449-0.343-0.902-0.496-1.363l-4.56,0.805l-1.217-6.896l1.289-0.229h24.405l-15.646,15.646l0.662-0.789
					C407.209,485.088,406.9,484.717,406.601,484.338z M396.821,467.76l1.217-6.896l4.56,0.805c0.153-0.461,0.316-0.916,0.497-1.363
					l-4.01-2.318l3.5-6.061l4.016,2.316c0.3-0.379,0.608-0.752,0.931-1.111l-0.662-0.789l15.646,15.645h-24.41L396.821,467.76z
					 M444.722,454.242l4.017-2.316l3.5,6.061l-4.01,2.318c0.179,0.447,0.344,0.902,0.498,1.363l4.558-0.805l1.218,6.896
					l-1.283,0.227h-24.411l15.652-15.652l-0.668,0.797C444.112,453.49,444.423,453.863,444.722,454.242z M430.593,445.502
					l1.584-4.35l6.58,2.395l-1.584,4.35c0.428,0.23,0.845,0.475,1.257,0.729l2.978-3.547l3.601,3.021l-18.044,18.045v-25.521h2.198
					v4.631C429.644,445.322,430.121,445.404,430.593,445.502z M422.159,440.623h2.199v25.521L406.314,448.1l3.602-3.021l2.977,3.547
					c0.411-0.254,0.829-0.498,1.258-0.729l-1.584-4.35l6.578-2.395l1.584,4.35c0.473-0.098,0.949-0.18,1.431-0.248V440.623z
					 M422.098,427.859v4.549c-10.96,1.043-20.521,6.867-26.593,15.357l-3.942-2.275C398.44,435.652,409.461,428.936,422.098,427.859
					z M387.992,486.924c-2.513-5.355-3.922-11.33-3.922-17.633c0-6.307,1.41-12.279,3.922-17.635l3.946,2.277
					c-2.135,4.68-3.335,9.877-3.335,15.357c0,5.479,1.2,10.676,3.335,15.355L387.992,486.924z M422.098,510.721
					c-12.637-1.074-23.657-7.791-30.535-17.629l3.942-2.277c6.072,8.492,15.633,14.313,26.593,15.357V510.721z M420.729,493.078
					l-1.582,4.348l-6.58-2.396l1.584-4.346c-0.429-0.23-0.847-0.477-1.257-0.73l-2.978,3.549l-3.602-3.021l18.044-18.045v25.521
					h-2.199v-4.631C421.678,493.258,421.201,493.176,420.729,493.078z M429.162,497.957h-2.198v-25.521l18.044,18.043l-3.601,3.023
					l-2.978-3.549c-0.412,0.254-0.829,0.5-1.257,0.73l1.582,4.346l-6.578,2.396l-1.584-4.348c-0.472,0.098-0.949,0.18-1.431,0.248
					V497.957z M429.224,510.721v-4.547c10.961-1.047,20.521-6.867,26.594-15.359l3.944,2.277
					C452.882,502.93,441.86,509.646,429.224,510.721z M463.332,486.926l-3.946-2.277c2.134-4.682,3.333-9.879,3.333-15.357
					c0-5.48-1.199-10.678-3.333-15.357l3.946-2.277c2.512,5.355,3.921,11.328,3.921,17.635
					C467.253,475.596,465.844,481.57,463.332,486.926z"/>
			</g>
		</g>
		<g>
			<path d="M516.792,615.289"/>
		</g>
		<g>
			<path d="M611.193,620.531c1.474,0,2.664-1.188,2.664-2.665c0-1.474-1.19-2.652-2.664-2.652c-1.475,0-2.653,1.179-2.653,2.652
				C608.54,619.328,609.719,620.531,611.193,620.531z"/>
			<circle cx="689.262" cy="479.764" r="32.68"/>
			<path d="M747.631,718.397l-27.847-87.522c2.212-2.396,3.573-5.588,3.573-9.106v-83.558c0-7.429-6.019-13.447-13.447-13.447
				h-16.943l-40.395-9.35l-19.41-34.915c-3.22-5.791-10.525-7.876-16.319-4.657c-5.792,3.221-7.877,10.526-4.657,16.319l22,39.573
				c1.648,2.966,4.477,5.095,7.782,5.86l7.913,1.831l-57.764,49.048l-11.3-11.284c1.396-4.967,0.136-10.521-3.761-14.434
				c-3.89-3.867-9.367-5.139-14.311-3.787l8.369,8.356l-2.201,8.193l-8.195,2.192l-8.369-8.359
				c-1.339,4.935-0.069,10.423,3.809,14.312c4.072,4.059,9.92,5.26,15.047,3.591l0.047,0.037l11.595,11.596
				c-1.125,3.762-0.391,7.997,2.34,11.213c2.374,2.796,5.753,4.233,9.153,4.233c1.157,0,2.315-0.177,3.439-0.514l7.882,7.883
				c1.36,1.356,3.151,2.052,4.932,2.052s3.559-0.695,4.932-2.052c2.71-2.71,2.71-7.123,0-9.854l-6.368-6.359l46.012-39.068v55.348
				c0,1.827,0.367,3.567,1.027,5.155l-20.417,33.111c-1.573,2.55-2.135,5.596-1.575,8.539l10.59,55.703
				c1.094,5.754,6.127,9.761,11.775,9.761c0.743,0,1.498-0.069,2.255-0.213c6.511-1.238,10.785-7.52,9.548-14.03l-9.721-51.128
				l20.628-33.453h16.7l28.781,90.461c1.625,5.105,6.347,8.364,11.433,8.364c1.205,0,2.432-0.183,3.642-0.567
				C746.149,731.462,749.64,724.713,747.631,718.397z M611.193,615.214c1.474,0,2.664,1.179,2.664,2.652
				c0,1.477-1.19,2.665-2.664,2.665c-1.475,0-2.653-1.203-2.653-2.665C608.54,616.393,609.719,615.214,611.193,615.214z"/>
		</g>
		<g>
			<polygon points="80.458,564.304 84.777,578.354 86.004,577.97 81.687,563.94 			"/>
			<polygon points="86.262,562.532 85.04,562.909 89.365,576.942 90.583,576.574 			"/>
			<circle cx="128.702" cy="479.764" r="32.68"/>
			<path d="M243.254,508.793c-4.534-4.836-12.126-5.081-16.962-0.548L205.754,527.5h-37.416l42.262-43.435
				c4.622-4.75,4.518-12.347-0.232-16.969s-12.348-4.52-16.969,0.232l-55.883,57.435h-29.464c-7.428,0-13.447,6.019-13.447,13.447
				v49.035l-0.717-1.206l-1.492,0.888l-1.328-4.314l1.816-0.547c-0.146-1.291,0.166-2.561,0.879-3.607l-5.829-18.944l-0.051,0.015
				c-0.184-0.394-0.469-0.712-0.824-0.9c0.339-0.475,0.481-1.063,0.299-1.656c-0.31-1.009-1.392-1.581-2.398-1.271l-7.321,2.245
				c-1.011,0.319-1.578,1.392-1.274,2.405c0.188,0.587,0.642,1.006,1.192,1.202c-0.192,0.362-0.235,0.782-0.179,1.214l-0.053,0.015
				l5.823,18.941c1.149,0.46,2.122,1.313,2.739,2.441l2.007-0.604l-0.015-0.051l0.197-0.054l1.572,5.104l-6.467,3.846l-6.287-10.577
				c2.058-3.562,2.179-8.104-0.061-11.895c-2.243-3.755-6.225-5.817-10.312-5.747l4.819,8.107l-3.316,5.896l-6.765,0.079
				l-4.819-8.109c-2.007,3.549-2.108,8.04,0.122,11.81c2.347,3.939,6.629,6.021,10.919,5.741l0.029,0.038l6.13,10.33l-4.394,2.613
				l25.103,42.212l-24.02,75.492c-2.009,6.315,1.481,13.064,7.797,15.074c1.21,0.385,2.436,0.567,3.641,0.567
				c5.086,0,9.808-3.26,11.432-8.364l28.783-90.461h19.562l25.325,28.379l-8.271,56.712c-0.957,6.558,3.584,12.649,10.143,13.605
				c0.587,0.086,1.17,0.128,1.747,0.128c5.861,0,10.988-4.299,11.859-10.271l9.08-62.254c0.512-3.513-0.557-7.072-2.921-9.721
				l-25.771-28.879c0.032-0.378,0.058-0.759,0.058-1.146V551.5H210.5c3.049,0,5.983-1.16,8.208-3.245l24-22.5
				C247.542,521.222,247.787,513.628,243.254,508.793z M84.777,578.354l-4.318-14.051l1.229-0.363l4.317,14.029L84.777,578.354z
				 M85.04,562.909l1.223-0.377l4.321,14.042l-1.219,0.368L85.04,562.909z"/>
		</g>
		<g>
			<path d="M665.606,198.309l-8.944-8.775l-1.375,1.383l9.436,9.266l0.139-0.35C665.073,199.297,665.33,198.795,665.606,198.309z"/>
			<path d="M671.026,193.342l-9.214-9.054l-1.373,1.413l8.8,8.641C669.805,193.955,670.405,193.626,671.026,193.342z"/>
			<circle cx="578.604" cy="178.935" r="32.68"/>
			<path d="M680.432,193.083c-1.624-0.642-3.304-0.896-4.942-0.822l-13.943-13.698c-1.882,0.218-3.813-0.222-5.468-1.293
				l-2.264,2.278l0.058,0.057l-0.226,0.216l-31.905-31.314l0.781-0.795l-3.326-4.028l-10.872-6.755l-1.722,1.758l6.952,10.749
				l4.082,3.246l0.776-0.789l31.819,31.244l-2.048,2.061c1.139,1.632,1.644,3.57,1.445,5.5l13.574,13.329l-15.238,38.558
				l-47.62-13.095c-1.937-1.71-4.386-2.882-7.141-3.245l-40.166-5.286l-36.678-33.274v-40.803c0-6.627-5.373-12-12-12
				s-12,5.373-12,12V193c0,3.385,1.43,6.613,3.938,8.888l40.109,36.387l-10.134,77.002c-0.238,1.811-0.101,3.584,0.346,5.244
				l-24.563,30.166c-1.892,2.323-2.846,5.27-2.675,8.261l3.231,56.608c0.364,6.385,5.655,11.317,11.97,11.316
				c0.229,0,0.462-0.006,0.694-0.02c6.617-0.378,11.675-6.048,11.297-12.664l-2.966-51.959l24.816-30.476l16.557,2.179
				l16.733,93.442c1.041,5.809,6.098,9.887,11.799,9.887c0.701,0,1.414-0.062,2.129-0.189c6.523-1.169,10.865-7.404,9.697-13.928
				l-16.189-90.408c2.505-2.087,4.271-5.074,4.729-8.562l9.09-69.073l49.016,13.479c1.061,0.292,2.131,0.432,3.186,0.432
				c4.815,0,9.309-2.917,11.156-7.591l20.854-52.767C689.617,202.49,686.596,195.519,680.432,193.083z M661.813,184.288l9.214,9.054
				c-0.621,0.284-1.222,0.613-1.787,1l-8.8-8.641L661.813,184.288z M655.287,190.917l1.375-1.383l8.944,8.775
				c-0.276,0.486-0.533,0.988-0.745,1.523l-0.139,0.35L655.287,190.917z"/>
		</g>
	</g>
</g>
</svg>
